<?xml version="1.0" encoding="UTF-8"?>
<!DOCTYPE svg PUBLIC "-//W3C//DTD SVG 1.1//EN" "http://www.w3.org/Graphics/SVG/1.1/DTD/svg11.dtd">
<!-- Creator: CorelDRAW X7 -->
<svg xmlns="http://www.w3.org/2000/svg" xml:space="preserve" width="331px" height="187px" version="1.1" style="shape-rendering:geometricPrecision; text-rendering:geometricPrecision; image-rendering:optimizeQuality; fill-rule:evenodd; clip-rule:evenodd"
viewBox="0 0 14657 8289"
 xmlns:xlink="http://www.w3.org/1999/xlink">
 <defs>
  <style type="text/css">
   <![CDATA[
    .fil0 {fill:#333462;fill-rule:nonzero}
   ]]>
  </style>
 </defs>
 <g id="Layer_x0020_1">
  <metadata id="CorelCorpID_0Corel-Layer"/>
  <g>
   <path class="fil0" d="M515 0c132,134 586,467 1361,997 779,533 1881,1266 3308,2198l0 1 320 211 457 -301 0 -1 237 -155 -287 -188 0 0c-447,-294 -825,-541 -1134,-742l0 0c-250,-147 -324,-381 -287,-601 15,-93 51,-183 103,-262 52,-80 119,-149 197,-200 183,-120 420,-144 652,20l0 -1 1882 1233c344,-226 668,-438 972,-637 273,-178 578,-377 903,-588l0 0c233,-167 473,-143 657,-22 78,52 146,121 197,200 51,79 87,169 103,261 36,220 -38,452 -285,600l-1423 934 233 153 464 303 333 -218c1424,-932 2526,-1664 3304,-2198 774,-530 1227,-863 1360,-997l168 166c-142,144 -607,486 -1395,1026 -783,537 -1886,1271 -3308,2201l-246 161 128 84 -1 0 265 173 302 195c191,-121 366,-231 531,-332 178,-110 377,-230 589,-357 198,-132 405,-247 619,-344 217,-99 441,-179 671,-241l1 0c243,-61 493,-76 737,-47 244,30 483,105 705,223l7 5c212,134 387,315 514,525 128,210 207,449 228,699l0 19c-21,250 -100,489 -228,699 -127,210 -302,391 -514,526l-7 4c-222,118 -461,193 -705,223 -244,30 -494,15 -737,-47l-2 -1c-227,-62 -448,-143 -660,-241 -213,-98 -418,-213 -612,-344 -200,-116 -398,-236 -596,-359 -183,-113 -355,-222 -523,-329l-300 195 0 0 -260 173 -1 0 -137 90 227 150 0 0c1425,931 2529,1665 3313,2202 788,539 1253,881 1395,1025l-168 167c-133,-135 -586,-467 -1361,-997 -779,-534 -1881,-1267 -3308,-2199l0 0 -314 -207 -454 297 0 0 -237 155 1411 931 0 -1c250,148 325,381 288,602 -16,92 -52,182 -103,262 -52,79 -119,149 -197,200l-1 -1c-184,121 -422,145 -655,-22l-1880 -1235 -1886 1233c-233,167 -473,143 -656,22 -79,-52 -146,-121 -197,-200 -51,-79 -87,-169 -103,-261 -37,-220 38,-452 285,-600l1423 -933 -236 -155 -458 -301 -319 210c-1427,934 -2530,1669 -3309,2203 -775,532 -1229,864 -1361,997l-167 -167c143,-143 608,-485 1395,-1025 784,-538 1888,-1273 3312,-2206l234 -153 -128 -85 -1 0 -270 -173c-74,-45 -144,-91 -212,-137l-88 -58c-170,112 -344,222 -520,331 -197,122 -391,240 -586,357 -198,131 -406,247 -621,345 -216,98 -440,178 -670,241l-2 0c-243,61 -493,76 -737,46 -244,-29 -482,-104 -704,-222l-7 -5c-213,-134 -388,-315 -515,-525l-1 0c-127,-209 -206,-448 -226,-700l0 -18c20,-251 99,-491 226,-701 126,-210 302,-391 516,-526l7 -4c222,-119 461,-194 704,-223 244,-30 494,-15 737,46l2 1c230,62 454,142 670,240 214,98 421,213 619,344 203,122 399,242 589,360 173,108 346,219 520,331 80,-50 154,-99 228,-149l70 -47 1 -1 270 -173 1 0 129 -85 -235 -155 0 0c-1424,-930 -2528,-1664 -3312,-2201 -788,-540 -1254,-882 -1396,-1026l169 -166zm5203 3548l8 5 0 0 606 395 0 0 82 54 5 -4 7 4c26,-16 51,-33 76,-51l4 -3 605 -396 -698 -460 -322 211 0 0 -373 245zm-121 203l-94 -62 -215 142 -1 1 -270 173 0 -1 -68 46c-48,32 -95,64 -143,95l1 1c68,45 136,90 208,134l2 2 270 173 1 1 215 141 94 -62 0 0 602 -392 -602 -392 0 0zm826 533l-5 3 -5 -3 -81 53 0 1 -606 395 0 0 -8 6 373 244 320 211 700 -458 -605 -398 0 0 -83 -54zm903 -591l-686 450 693 457 690 -453 -5 -3 -692 -451zm-1286 -1128l373 244 688 -451 -3 -1 10 -7 -1796 -1176 -4 -3c-139,-100 -281,-87 -388,-16 -51,33 -95,78 -129,130 -34,53 -58,112 -68,173 -22,130 23,269 174,359l5 2c378,247 758,495 1138,745l0 1zm588 386c239,157 472,310 698,460l690 -454 -700 -458 -688 452zm911 -601l3 2 -10 6 700 458 1511 -992 4 -3c152,-89 197,-229 176,-359 -11,-61 -34,-120 -68,-172 -34,-52 -78,-98 -128,-131 -108,-71 -250,-84 -391,17l-4 3c-232,151 -531,346 -907,591 -278,182 -574,376 -886,580zm-3166 1794c-141,-90 -284,-181 -428,-271 -200,-124 -395,-245 -587,-359l-5 -3c-186,-125 -383,-234 -588,-327 -204,-93 -417,-169 -634,-228l0 0c-214,-54 -434,-67 -649,-40 -215,26 -424,91 -617,193 -180,114 -329,268 -437,447 -106,176 -173,377 -191,588 18,210 85,411 192,587l-1 0c108,178 256,332 437,446 193,102 402,167 617,193 215,27 435,14 649,-40l0 0c217,-59 429,-135 634,-228 204,-92 401,-202 589,-327l4 -3c200,-119 396,-238 587,-356 142,-88 285,-178 428,-272zm2254 1192l708 466 704 -464 -706 -465 -706 463zm484 600l-699 -459 -1510 990 -5 2c-151,90 -197,229 -175,360 10,60 34,119 68,172 34,52 78,98 128,131 107,70 249,83 390,-17l4 -3 1799 -1176zm1833 -1191l-11 -7 0 0 -604 -395 -87 -57 -87 57 -600 394 699 460 321 -211 0 -1 369 -240zm118 -205l97 64 224 -147 0 0 260 -172 1 -1 203 -131 -222 -144 -265 -173 -1 0 -215 -141 -82 53 0 0 -605 396 2 1 603 395 0 0zm693 1929l-1501 -990 -699 460 1789 1176 4 2c140,101 282,88 389,17l0 0c51,-33 95,-79 129,-131 34,-52 58,-112 68,-172 22,-131 -24,-270 -175,-359l-4 -3zm528 -2328c149,95 296,187 437,274 193,120 390,239 596,359l7 4c185,125 379,234 580,326 200,93 408,169 621,228l0 0c214,54 435,67 651,41 213,-26 422,-91 614,-192 181,-115 331,-269 439,-448 106,-175 173,-376 192,-586 -19,-211 -86,-412 -192,-587 -108,-178 -258,-333 -439,-448 -192,-101 -401,-166 -614,-192 -216,-26 -436,-13 -649,41l0 0c-218,58 -430,134 -635,227 -205,93 -401,202 -588,327l-5 4c-182,109 -374,225 -588,357 -149,91 -291,179 -427,265zm3506 1040l0 0 0 0zm0 -2069l0 0 0 0zm-4861 442l-376 -246 -320 -209 -690 453 608 396 5 3c27,19 54,37 81,55l88 -58 604 -394z"/>
  </g>
 </g>
</svg>
