<?xml version="1.0" encoding="UTF-8"?>
<!DOCTYPE svg PUBLIC "-//W3C//DTD SVG 1.1//EN" "http://www.w3.org/Graphics/SVG/1.1/DTD/svg11.dtd">
<!-- Creator: CorelDRAW X7 -->
<svg xmlns="http://www.w3.org/2000/svg" xml:space="preserve" width="170px" height="167px" version="1.1" style="shape-rendering:geometricPrecision; text-rendering:geometricPrecision; image-rendering:optimizeQuality; fill-rule:evenodd; clip-rule:evenodd"
viewBox="0 0 6367 6264"
 xmlns:xlink="http://www.w3.org/1999/xlink">
 <defs>
  <style type="text/css">
   <![CDATA[
    .fil0 {fill:#333462}
   ]]>
  </style>
 </defs>
 <g id="Layer_x0020_1">
  <metadata id="CorelCorpID_0Corel-Layer"/>
  <path class="fil0" d="M5499 3664c47,46 92,121 96,121 8,52 204,-436 236,-475 -69,39 -282,189 -455,278 43,22 84,47 123,76z"/>
  <path class="fil0" d="M1868 3876c64,31 1453,778 3034,48 27,-39 51,-79 70,-122 -4,0 -159,69 -414,145 -324,96 -661,145 -1000,146 -1062,19 -1724,-370 -2192,-696 -203,-159 -320,-404 -318,-662 -4,-182 52,-360 159,-508 -253,-357 -191,-848 143,-1131 590,-439 1300,-686 2034,-708 86,-5 692,-59 1601,290 -33,-67 -74,-129 -121,-186 -451,-191 -936,-291 -1426,-294 -44,0 -69,0 -69,0 -922,27 -1800,399 -2459,1044 -277,286 -507,614 -681,971 341,725 919,1312 1639,1663z"/>
  <path class="fil0" d="M5769 1082c-23,-83 -58,-135 -192,-440 -21,44 -47,86 -78,124 -36,35 -77,65 -121,89 380,183 359,231 394,225l-3 2z"/>
  <path class="fil0" d="M2158 4212c998,355 2099,282 3042,-201 0,0 -84,-181 64,-199 171,-25 117,256 120,257 87,34 176,61 267,82 0,0 664,-1352 668,-1392 0,0 0,-43 -53,-23 -14,0 -1223,1122 -2624,1142 -621,28 -1236,-119 -1777,-423 -418,-209 -606,-418 -593,-711 -27,-286 223,-526 223,-526 -147,-131 -227,-322 -214,-519 24,-429 367,-579 723,-766 659,-321 1404,-420 2125,-284 1024,140 2045,1002 2057,1005 48,12 48,-30 48,-30 0,0 -579,-1346 -603,-1346 -101,33 -200,72 -296,118 15,23 87,248 -88,253 -176,6 -105,-215 -91,-241 0,-16 -782,-408 -1690,-408l-28 0c-539,8 -1072,125 -1566,342 -829,380 -1494,1045 -1872,1876 0,0 491,1361 2158,1994zm-950 -3369c594,-450 1311,-710 2056,-745 1073,-37 1766,361 1766,361 0,0 -54,284 224,286 278,-34 208,-304 208,-304 0,0 82,-46 108,-39 25,7 430,950 437,948 10,46 -34,27 -34,27 0,0 -1081,-841 -2277,-874 -1323,-70 -2276,676 -2276,676 -154,140 -244,337 -249,546 -19,243 172,481 174,504 1,23 -196,209 -183,518 7,200 91,390 236,529 258,200 544,360 850,472 529,252 1371,235 1371,235 499,-18 989,-138 1440,-352 341,-158 664,-352 962,-580 44,-23 40,16 40,16 0,0 -452,950 -459,953 -34,11 -72,3 -99,-21 0,0 50,-279 -231,-302 -219,19 -208,270 -208,270 -449,217 -936,342 -1434,369 -35,0 -102,5 -195,5 -635,-2 -1258,-167 -1810,-480 -668,-370 -1197,-949 -1507,-1648 -6,-20 341,-811 1090,-1370z"/>
  <path class="fil0" d="M5212 3103c45,-22 98,-18 139,10 21,13 34,26 34,25 73,-40 143,-87 209,-139l-12 -6c-73,36 -161,6 -198,-67 -4,-10 -8,-20 -11,-30 0,-8 -48,-402 -51,-414 1,-41 15,-80 41,-112 -45,-33 -73,-84 -78,-139 -7,-56 12,-111 50,-151 -42,-24 -74,-64 -88,-110 0,-11 -85,-608 -82,-609 20,-108 130,-62 130,-62l12 -24c-84,-54 -172,-104 -262,-150 -51,58 -130,83 -205,63 -122,-37 -104,-195 -104,-195 -59,-27 -120,-50 -181,-70l-25 59c0,0 140,60 116,185 0,15 -129,787 -128,783 -4,62 -39,118 -92,151 33,45 48,101 44,158 -11,51 -41,96 -85,125 25,42 36,90 33,139 0,7 -118,787 -118,766 -25,127 -103,237 -215,302l0 41c70,-10 140,-24 209,-41 7,0 -11,-129 96,-155 68,-10 135,23 167,84 0,0 51,-16 69,-24 5,0 -4,-35 -4,-35 -85,-18 -144,-95 -140,-181 0,-9 84,-545 91,-557 146,-96 299,-182 458,-255 8,0 70,462 70,440 21,141 -27,284 -130,383 0,0 4,53 4,69 58,-26 115,-55 169,-89 -19,-63 7,-131 64,-166zm-197 -796c-123,92 -258,168 -400,227l0 0c0,-140 197,-1265 208,-1275 14,-9 32,-9 46,0 14,9 167,996 148,1048l-2 0z"/>
  <path class="fil0" d="M3733 5826l-180 0c-7,0 -10,0 -12,8l0 12 -7 24c-7,19 -10,38 -11,57 0,12 0,17 11,16 10,0 6,-4 7,-14 2,-16 12,-30 26,-36l32 -6 111 0c14,0 21,3 21,10 -3,19 -9,38 -18,55 -12,25 -26,50 -42,73l-34 50c-31,44 -49,96 -50,150 -1,11 1,22 5,32 3,4 7,6 11,7l26 0c9,-1 18,-3 27,-7l5 0c6,0 10,-4 10,-7l0 0 -4 -15c-4,-16 -5,-31 -4,-47 4,-55 19,-109 43,-158l30 -70c16,-36 25,-74 27,-113 0,-7 -1,-13 -5,-18 -8,-3 -17,-4 -25,-3l0 0z"/>
  <path class="fil0" d="M2885 6216c-29,0 -47,-11 -53,-28l0 -17 0 -304 0 -29c0,-5 0,-9 0,-12 0,-2 0,-11 -6,-11 -3,-1 -6,-1 -8,0l-16 14c-19,14 -41,23 -65,27 -11,2 -22,5 -32,9 -5,2 -8,7 -9,12 0,5 0,8 9,8l6 0 8 0c6,-1 13,-1 18,0 17,0 26,11 26,33l0 253c2,13 -2,27 -10,38 -12,8 -27,13 -42,14 -4,0 -8,4 -8,8 0,0 0,0 0,1 0,3 3,7 7,7 0,0 1,0 1,0l13 0c18,-1 36,-1 55,0l50 0 41 0c18,0 27,0 27,-11 0,-11 -4,-8 -13,-8l1 -4z"/>
  <path class="fil0" d="M3468 6216c-30,0 -47,-11 -53,-28l-4 -17 0 -285c0,-7 0,-13 0,-19l0 -29c0,-4 0,-8 0,-12 0,-8 0,-11 -7,-11 -2,-1 -5,-1 -8,0l-15 14c-19,14 -41,24 -65,27 -11,2 -22,5 -32,9 -5,2 -8,7 -9,12 0,5 0,8 9,8l6 0 8 0c6,-1 13,-1 19,0 16,0 25,11 25,33l0 253c1,13 -2,27 -10,38 -13,8 -27,13 -43,14 -5,0 -8,3 -8,9 0,4 0,7 8,7l14 0c18,-1 36,-1 54,0l50 0 40 0c19,0 28,0 28,-11 0,-11 -4,-8 -13,-8l6 -4z"/>
  <path class="fil0" d="M3149 6005c-13,-5 -18,-8 -18,-10 0,-2 5,-5 16,-8 17,-6 31,-16 42,-30 10,-13 16,-29 16,-46 1,-27 -11,-54 -32,-70 -24,-18 -53,-27 -82,-26 -34,-1 -68,10 -95,32 -24,21 -37,51 -36,83 -1,34 16,67 44,86 4,0 6,5 6,7 0,1 0,0 -6,5 -37,16 -62,52 -63,92 0,33 14,64 39,85 29,22 65,34 101,32 38,2 75,-11 103,-35 26,-23 41,-57 39,-92 2,-49 -28,-93 -74,-108zm-147 -100c-1,-18 7,-35 22,-46 15,-12 35,-18 55,-18 21,0 42,8 57,23 16,15 24,36 24,57 0,17 -5,33 -15,46 -9,11 -23,18 -37,18 -25,-2 -50,-11 -70,-26 -19,-12 -31,-31 -33,-54zm143 298c-17,14 -39,22 -61,20 -28,1 -55,-10 -73,-31 -20,-22 -30,-51 -29,-80 -1,-19 5,-39 17,-54 4,-5 9,-9 14,-13 4,-3 8,-4 13,-5l13 5 37 16 32 11c36,9 61,42 61,79 0,20 -8,39 -24,52z"/>
  <path class="fil0" d="M882 5011c-35,0 -69,7 -101,20 -30,11 -56,29 -78,53 -19,20 -33,44 -42,69 -10,28 -15,57 -15,87 -3,59 19,117 61,160 44,41 103,63 164,60 63,4 125,-22 168,-69 42,-48 64,-109 63,-173 2,-55 -19,-109 -58,-148 -44,-40 -102,-61 -162,-59zm107 376c-24,34 -63,53 -104,52 -48,1 -93,-22 -119,-62 -32,-48 -48,-104 -45,-162 -2,-47 11,-95 38,-134 24,-31 61,-49 100,-47 38,-1 76,14 104,41 21,21 37,47 47,76 12,31 18,64 18,97 3,50 -11,99 -39,139z"/>
  <path class="fil0" d="M1601 5018l-9 0c-32,3 -55,5 -70,5 -9,1 -18,1 -27,0 -12,-2 -24,-3 -37,-3 -4,-1 -8,3 -9,7 0,1 0,1 0,2 0,5 4,7 11,7 23,0 45,11 59,30 11,32 15,66 12,99 0,42 0,87 0,133 0,13 0,20 -7,20 -7,0 -14,-9 -29,-25l-10 -12 -168 -188 -15 -18 -22 -26c-8,-9 -16,-18 -24,-26 -5,-4 -10,-5 -16,-5 -5,0 -11,0 -16,0 -20,0 -37,0 -54,0l-35 0c-7,0 -11,0 -11,9 0,9 0,8 10,9 48,0 69,37 69,102l0 139 0 76c1,20 -2,41 -10,59 -7,14 -19,24 -34,27 -6,0 -9,5 -9,10 0,4 3,8 9,8l16 0c19,-3 38,-5 57,-5 20,0 40,2 59,5l12 0c7,0 10,0 10,-9 0,-9 0,-8 -9,-9 -34,0 -55,-16 -62,-40 -9,-43 -12,-87 -10,-131l0 -132c0,-10 0,-14 8,-14 7,0 5,0 10,8l281 319c3,4 7,6 12,7 4,0 6,-3 6,-8l0 -40 0 -59 0 -27 5 -198 0 -15c0,-44 13,-70 41,-70 7,0 10,-4 10,-9 0,-6 -3,-10 -10,-10l6 -2z"/>
  <path class="fil0" d="M613 5437c-19,-1 -38,-10 -51,-25 -11,-20 -17,-42 -15,-65l0 -13 -8 -197 0 -20c-1,-21 3,-42 12,-61 10,-13 26,-20 42,-20 6,0 8,0 8,-8 0,-8 -4,-9 -11,-9l-14 0c-11,1 -22,1 -32,0 -7,1 -13,1 -20,0l-14 0c-7,0 -14,3 -19,9 -9,14 -17,30 -24,45l-119 257c-4,8 -8,12 -11,12 -4,0 -9,-6 -15,-18l-130 -284c-4,-12 -16,-20 -29,-20l-29 0c-9,0 -19,0 -28,0l-36 0c-9,0 -14,0 -14,10 0,9 5,9 12,9 20,-2 38,6 51,21 13,17 20,38 19,60l0 21 -9 209c1,20 -3,39 -11,57 -8,14 -21,25 -36,30 -5,0 -8,4 -8,8 0,4 0,8 10,8l16 0c15,-1 30,-1 45,0 8,0 17,0 25,0l23 0 16 0c7,0 12,0 12,-8 0,-8 -5,-8 -15,-10 -27,-7 -47,-30 -49,-57l0 -30 0 -13 4 -160 0 -10c0,-9 0,-13 5,-13 1,-1 3,-1 4,0l0 5 101 226 16 33c12,23 19,35 23,35 5,0 10,-7 16,-21l3 -1 120 -253c6,-11 10,-17 13,-17 4,0 4,0 4,8l9 209 0 15c1,11 -1,22 -7,32 -6,9 -15,15 -25,17 -6,0 -9,4 -9,9 0,4 0,8 7,8l29 0c18,-1 37,-1 55,0 11,0 30,0 55,4l21 0c14,0 21,0 21,-9 0,-9 0,-8 -9,-9l0 -6z"/>
  <path class="fil0" d="M4616 5343c0,0 -8,7 -17,20 -37,45 -94,68 -152,63 -11,0 -21,-1 -31,-5 -9,-4 -14,-27 -14,-69l0 -271c0,-27 10,-42 32,-44 8,0 13,0 13,-8 0,-9 -6,-9 -19,-9 -17,-1 -33,-1 -50,0 -23,0 -39,0 -49,0 -10,0 -19,0 -29,0l-13 0 -13 0 -9 0c-5,-1 -9,3 -9,8 0,1 0,1 0,2 0,4 4,8 11,9l19 0c29,5 43,24 43,58l0 264c1,18 -2,36 -8,53 -6,11 -16,19 -28,22 -5,0 -8,3 -8,8 0,6 0,9 9,9l17 0c27,-4 53,-5 80,-5l39 0 34 0 39 0 30 0c22,2 44,-4 61,-19 16,-20 25,-44 26,-70 0,-8 0,-12 -6,-12l2 -4z"/>
  <path class="fil0" d="M5258 5011c-35,0 -69,7 -100,20 -30,11 -57,29 -78,53 -19,20 -34,44 -43,69 -10,28 -15,57 -15,87 -3,59 19,118 62,160 44,41 103,63 163,60 64,3 126,-22 169,-69 42,-48 64,-109 62,-173 3,-56 -19,-111 -60,-151 -44,-39 -101,-59 -160,-57zm108 377c-24,34 -63,53 -104,52 -47,0 -91,-23 -117,-62 -32,-48 -48,-104 -45,-162 -4,-47 9,-95 36,-134 23,-31 60,-49 99,-47 39,1 77,18 104,47 21,19 37,43 48,70 11,31 18,64 18,97 3,50 -11,99 -39,139z"/>
  <path class="fil0" d="M4982 5345l0 4c-36,59 -104,91 -172,80 -8,1 -16,-1 -23,-6 -6,-4 -10,-11 -12,-18 -6,-21 -8,-43 -7,-64l0 -30c-1,-17 -1,-34 0,-50 0,-7 3,-14 7,-18 7,-5 14,-6 21,-5l22 0c15,-2 30,-2 44,0 8,1 15,4 20,9 11,11 18,26 19,41 0,9 5,13 10,12 2,1 4,1 6,0l0 -22c0,-12 0,-26 0,-43 0,-17 0,-41 0,-47 -1,-5 -1,-10 0,-14 0,-8 0,-13 0,-14 0,-2 0,-9 -7,-9 -4,0 -8,3 -10,7l-8 15c-7,20 -26,34 -48,35l-50 0c-11,0 -18,0 -21,-9 -3,-12 -5,-25 -4,-37l0 -81c0,-18 6,-29 16,-32l22 0 38 0c26,-2 52,3 75,15 15,9 24,27 23,45 0,10 2,14 6,14 4,0 8,-8 12,-25 1,-13 1,-26 0,-39 0,-13 0,-21 0,-26 0,-5 0,-10 -9,-10l-10 0c-16,0 -59,0 -128,0l-120 0 -57 0c-7,0 -11,0 -11,7 0,5 4,9 8,9 0,0 1,0 1,0 17,1 34,8 48,18 9,14 13,32 11,48l0 251c1,15 1,30 0,45 -1,10 -4,20 -10,28 -7,7 -15,12 -25,15 -4,1 -7,4 -7,9 0,5 0,7 9,7l18 0c32,0 55,0 69,0l55 0 37 4 45 0c20,0 39,-5 57,-14 15,-8 27,-21 35,-36 11,-18 17,-39 16,-60 1,-2 1,-5 0,-7 -2,-1 -4,-1 -6,0l-5 -2z"/>
  <path class="fil0" d="M4007 5011c-34,0 -68,7 -100,20 -30,11 -57,29 -78,53 -19,20 -33,44 -43,69 -9,28 -15,57 -15,87 -3,59 19,118 62,160 44,41 104,63 164,60 64,3 125,-22 168,-69 42,-47 65,-108 63,-171 2,-57 -20,-111 -61,-151 -44,-39 -101,-60 -160,-57zm108 375c-24,34 -63,53 -104,52 -45,-1 -88,-24 -113,-62 -32,-48 -47,-104 -45,-162 -4,-47 7,-94 32,-134 24,-31 61,-49 100,-47 38,-1 75,14 103,41 21,21 38,47 48,76 12,31 19,64 19,97 3,50 -11,99 -40,139z"/>
  <path class="fil0" d="M5974 5018l-9 0c-32,3 -56,5 -70,5 -9,1 -18,1 -27,0 -12,-2 -25,-3 -37,-3 -4,-1 -9,2 -9,7 0,0 0,1 0,2 0,5 0,7 10,7 23,0 46,11 59,30 13,32 18,66 16,101 0,41 0,86 0,133 0,13 0,19 -8,19 -8,0 -14,-8 -29,-24l-10 -12 -168 -189 -15 -18 -22 -26c-8,-9 -16,-18 -24,-26 -5,-3 -10,-5 -16,-4 -6,-1 -11,-1 -17,0 -19,0 -37,0 -53,0l-35 0c-8,0 -11,0 -11,9 0,9 3,7 9,8 49,0 70,38 70,102l0 140 0 76c1,20 -2,40 -10,59 -7,13 -19,23 -34,27 -6,0 -10,5 -10,9 0,4 0,8 9,8l16 0c19,-3 38,-5 58,-5 19,0 39,2 59,5l12 0c6,0 10,0 10,-9 0,-9 0,-7 -10,-8 -34,0 -55,-17 -61,-41 -9,-43 -12,-87 -10,-130l0 -133c0,-9 0,-14 8,-14 8,0 5,0 10,8l288 320c3,4 8,7 12,7 5,0 7,-3 7,-8l0 -40 0 -59 0 -27 4 -198 0 -17c0,-44 13,-70 41,-70 6,0 10,-4 10,-9 0,-6 0,-10 -10,-10l-3 -2z"/>
  <path class="fil0" d="M6358 5345c-1,1 -3,2 -4,4 -35,58 -101,89 -168,80 -8,0 -16,-1 -23,-6 -6,-4 -10,-11 -12,-18 -5,-21 -8,-43 -7,-64l0 -30c-1,-17 -1,-34 0,-50 0,-7 3,-14 8,-18 5,-5 13,-6 20,-5l23 0c15,-2 30,-2 45,0 7,1 14,5 19,9 11,11 18,26 19,41 0,9 5,13 11,12 1,1 3,1 4,0 1,-2 1,-4 0,-6l0 -16c0,-12 0,-26 0,-43 0,-17 0,-41 0,-47 0,-5 0,-10 0,-14 0,-8 0,-13 0,-14 0,-2 0,-9 -6,-9 -5,0 -8,3 -9,7l-8 15c-8,20 -27,34 -49,35l-50 0c-11,0 -18,-3 -21,-9 -4,-12 -5,-25 -4,-37l0 -81c0,-18 6,-29 16,-32l22 0 39 0c25,-2 51,3 74,15 16,9 24,27 23,45 0,10 0,14 6,14 7,0 12,-9 12,-25 0,-16 0,-21 0,-39 0,-18 0,-21 0,-26 0,-5 0,-10 -9,-10l-5 0c-16,0 -58,0 -127,0l-120 0 -63 0c-7,0 -11,0 -11,7 0,5 3,9 8,9 0,0 0,0 1,0 17,2 34,8 48,18 9,15 13,32 11,48l0 251c1,15 1,30 0,45 -3,11 -8,20 -16,28 -6,7 -15,12 -25,15 -4,0 -7,5 -6,9 1,4 0,7 8,7l23 0c32,0 55,0 70,0l55 0 36 4 45 0c20,1 39,-3 56,-11 15,-8 27,-20 35,-35 7,-12 12,-25 15,-39l0 -29c-2,0 -3,0 -4,0l-5 -5z"/>
  <path class="fil0" d="M2030 5058l0 -23c0,-10 -7,-15 -18,-15l-22 0c-56,0 -108,5 -157,5l-78 0 -64 0c-12,0 -24,0 -35,0l-11 0c-8,0 -13,0 -14,11l0 20 -3 28 -3 28c0,10 0,18 -4,25 -3,6 4,9 10,9 7,0 9,-4 11,-13l0 -9c3,-15 8,-29 15,-43 5,-7 13,-13 22,-16 28,-8 57,-11 86,-9 18,0 27,8 27,25l0 296c1,16 -4,32 -13,44 -10,12 -23,18 -38,18 -4,0 -9,0 -13,0 -1,3 -1,7 0,10 0,5 0,8 10,8l15 0 70 -4 46 0 39 0 32 0c7,0 10,0 10,-8 0,-8 -4,-10 -12,-11 -21,0 -41,-9 -55,-25 -12,-23 -17,-50 -15,-76l0 -235c0,-20 4,-32 12,-37 19,-7 40,-10 60,-8 19,-1 38,3 54,13 14,10 23,26 26,43 0,8 5,12 10,12 5,0 9,-4 9,-10 0,-9 0,-18 0,-27 0,-14 0,-22 -4,-26l-5 0z"/>
  <path class="fil0" d="M3550 5456l9 0c8,0 12,-3 12,-8 0,-6 0,-9 -9,-9l-13 0c-19,0 -36,-10 -45,-27 -6,-26 -8,-52 -7,-79l0 -241c-2,-14 2,-29 12,-40 14,-9 30,-12 46,-11 28,-1 55,11 73,31 21,21 32,49 32,79 1,24 -8,47 -25,64 -17,16 -40,25 -63,24 -11,0 -23,-2 -33,-5l-5 0c-6,0 -9,0 -9,9 0,9 8,11 24,15 17,4 35,6 53,6 35,1 69,-12 95,-35 25,-23 39,-56 39,-90 0,-31 -14,-61 -37,-82 -38,-28 -84,-41 -131,-37l-33 0 -35 0 -36 0c-30,0 -58,0 -81,0l-14 0c-9,0 -14,3 -14,10 0,6 0,9 12,9 17,1 34,9 46,21 11,16 15,34 14,53l0 244c1,21 -2,43 -8,64 -6,13 -19,21 -33,23 -5,0 -7,5 -7,9 0,5 3,8 10,8l19 0c27,0 47,-5 62,-5l10 0 50 0 20 0z"/>
  <path class="fil0" d="M2399 5345l-4 4c-35,58 -101,89 -168,80 -8,1 -16,-1 -23,-6 -6,-4 -10,-11 -12,-18 -6,-21 -8,-43 -7,-64l0 -30c-1,-17 -1,-34 0,-50 0,-7 2,-14 7,-18 6,-4 13,-6 21,-5l21 0c15,-2 30,-2 45,0 7,1 14,4 20,9 11,12 17,26 19,41 0,9 5,13 10,12 1,1 3,1 5,0 0,-2 0,-4 0,-6l0 -16c0,-12 0,-26 0,-43 0,-17 0,-41 0,-47l0 -14c1,-5 1,-10 0,-14 0,-6 0,-9 -7,-9 -4,0 -8,3 -10,7l-7 15c-7,20 -27,34 -48,35l-50 0c-12,0 -19,-3 -21,-9 -4,-12 -5,-25 -4,-37l0 -81c0,-18 5,-29 16,-32l21 0 39 0c26,-2 51,3 74,15 16,9 25,27 23,45 0,10 0,14 6,14 6,0 13,-9 13,-25 0,-16 0,-21 0,-39 0,-18 0,-21 0,-26 0,-5 0,-10 -9,-10l-5 0c-16,0 -58,0 -127,0l-120 0 -57 0c-7,0 -11,0 -11,7 0,5 3,9 8,9 0,0 0,0 0,0 18,1 35,8 49,18 9,15 13,32 11,48l0 251c1,15 -1,30 -3,45 -1,10 -4,20 -11,28 -6,7 -15,12 -24,15 -4,1 -7,4 -7,9 0,5 0,7 8,7l19 0c32,0 55,0 70,0l54 0 37 4 45 0c19,1 38,-3 56,-11 15,-8 27,-20 35,-35 11,-18 16,-39 16,-61 1,-2 1,-4 0,-7 -2,0 -4,0 -6,0l-7 -5z"/>
  <path class="fil0" d="M2591 5439c-34,0 -55,-17 -62,-41 -9,-43 -12,-87 -10,-131l0 -132c0,-9 0,-14 8,-14 4,2 7,5 10,8l288 320c4,4 8,7 11,7 4,0 7,0 7,-8l0 -126 4 -198 0 -15c0,-44 14,-70 42,-70 6,0 9,-5 9,-9 0,-5 0,-10 -9,-10l-10 0c-32,4 -55,6 -70,6l-27 0c-12,-1 -25,-1 -37,0 -5,0 -9,0 -9,8 0,9 0,7 11,8 23,-1 45,10 59,29 12,32 17,66 15,100 0,43 0,87 0,133 0,14 0,21 -8,21 -7,0 -14,-9 -28,-25l-11 -12 -167 -188 -16 -18 -22 -26c-7,-9 -15,-18 -24,-26 -4,-3 -10,-5 -16,-5l-17 0c-19,0 -36,0 -52,0l-38 0c-7,0 -11,0 -11,9 0,9 0,8 10,9 48,0 69,37 69,102l0 139 0 75c1,21 -2,41 -10,60 -7,13 -19,23 -34,27 -6,0 -8,5 -8,9 0,4 0,8 7,8l17 0c19,-3 38,-5 57,-5 20,0 39,2 58,5l13 0c7,0 10,0 10,-9 0,-9 0,-8 -9,-8l0 -7z"/>
  <path class="fil0" d="M3341 5455c5,0 7,0 7,-8 0,-8 0,-8 -6,-9 -13,-2 -26,-7 -37,-16 -11,-10 -20,-23 -26,-37l-133 -328 -8 -17c-8,-17 -14,-26 -17,-26 -3,0 -8,7 -14,23l0 0 -15 30 -29 60 -15 33 -86 199c-9,22 -19,42 -31,62 -7,9 -17,16 -28,19 -5,0 -8,5 -8,10 0,4 3,8 7,8 1,0 1,0 1,0l31 0c23,0 39,0 48,0 13,-1 26,-1 38,0l16 0c7,0 11,0 12,-9 1,-8 -4,-8 -13,-9 -36,-4 -55,-19 -55,-46 0,-8 2,-15 5,-21l9 -25c10,-24 19,-38 27,-41l28 -5 43 0c24,-2 47,-2 70,0 7,0 13,7 19,21 13,24 22,50 27,77 2,10 0,21 -6,29 -7,8 -16,13 -25,15 -5,0 -7,5 -7,7 -1,5 3,9 7,9 1,0 1,0 2,0l8 0c24,-4 49,-6 74,-5 26,0 53,2 79,5l12 0zm-203 -190l-93 0c-16,0 -24,-4 -24,-11 0,-3 0,-5 0,-8l0 -8 37 -84 6 -13c6,-16 11,-23 14,-23 3,0 11,12 21,35l41 97c0,2 0,4 0,6 0,4 -5,7 -13,7l11 2z"/>
  <path class="fil0" d="M2749 2387c9,-4 14,-11 0,-18 -53,-43 -78,-112 -64,-179 6,-58 25,-113 56,-162 5,-5 6,-13 2,-18 -1,-1 -1,-1 -2,-2 -18,-15 -35,-31 -50,-49 -13,-17 -21,-38 -22,-59 -9,-182 0,-364 -5,-547 -4,-49 -18,-96 -42,-139 -54,-121 -166,-205 -297,-223l-28 -8 -70 0 -23 0c-29,5 -58,13 -85,26 -57,24 -109,60 -153,105 -88,92 -145,208 -165,334 0,5 0,12 0,17 0,162 -2,324 -4,487 -1,44 -19,85 -49,116l0 6c40,32 58,83 48,132 -6,43 -18,85 -37,124 -6,10 -6,22 0,32 0,2 0,4 0,5 25,35 37,78 32,121 0,130 0,261 0,390 -3,102 24,202 79,288 52,94 129,173 221,229 165,97 378,48 484,-112 54,-78 86,-169 93,-264 4,-91 3,-182 -5,-272 -7,-79 -4,-158 8,-236 5,-52 36,-99 82,-125zm-409 -337c29,31 48,69 55,111 9,64 -6,129 -40,184 -8,11 -8,25 0,36 26,53 40,112 41,172 0,77 0,154 0,231 0,95 0,190 0,285 0,56 -7,112 -22,166 -4,18 -11,36 -19,53 -22,52 -78,82 -133,70 -48,-6 -94,-24 -133,-52 -37,-29 -62,-70 -70,-116 -12,-49 -18,-100 -18,-151 -4,-106 4,-214 7,-321 0,-48 0,-97 0,-146 0,-24 0,-46 0,-69 -1,-44 13,-87 41,-121 23,-28 20,-21 0,-47 -49,-81 -53,-182 -10,-267 22,-19 12,-35 0,-55 -16,-26 -24,-56 -25,-87 -3,-59 -3,-118 0,-177 0,-62 -4,-125 -5,-188 -9,-106 -4,-213 14,-318 6,-30 17,-58 32,-84 11,-20 28,-38 48,-50 25,-19 53,-35 83,-44 34,-7 69,-7 103,0 34,5 63,26 81,55 23,35 35,75 35,116l0 330 0 333c0,13 -2,26 -8,38 -14,33 -33,63 -57,89 -10,9 -9,16 0,25l0 -1z"/>
  <path class="fil0" d="M4059 1527c43,-132 86,-264 128,-396 14,-43 21,-88 39,-129 16,-55 70,-88 126,-79 7,2 15,-3 17,-10 0,-1 0,-2 0,-3l10 -37 0 -9c-45,-15 -92,-28 -139,-39 -19,-3 -20,0 -23,16 -9,54 -51,95 -105,104 -52,14 -107,-5 -139,-49 -17,-26 -25,-57 -22,-89 0,-26 0,-26 -25,-30 -65,-9 -130,-13 -195,-11 -11,0 -15,4 -16,14l-4 62c0,11 4,16 16,18 31,4 61,13 90,26 73,34 114,113 98,191 -12,84 -32,166 -61,245 -17,55 -27,111 -44,165 -9,36 -27,69 -51,96 -12,13 -27,24 -42,32 -9,4 -11,9 -7,17 7,20 12,41 21,61 28,84 -7,176 -85,220 -6,3 -11,7 -8,16 24,64 26,133 8,197 -15,59 -33,118 -54,175 -16,45 -27,92 -35,139 -9,-29 -16,-53 -25,-78 -27,-81 -50,-164 -69,-247 -13,-52 -15,-105 -6,-157 0,-14 13,-29 10,-40 -3,-11 -22,-16 -32,-26 -64,-53 -85,-142 -53,-219 10,-28 12,-30 -11,-46 -33,-23 -56,-58 -63,-97 -26,-119 -69,-235 -94,-354 -15,-57 -20,-116 -17,-174 0,-48 21,-94 58,-124 27,-20 58,-31 91,-33 28,0 30,-4 30,-32 0,-5 0,-10 0,-15 0,-29 0,-29 -25,-37l-59 0c-42,7 -83,15 -124,21 -23,0 -23,0 -28,27 -4,26 -5,35 -9,53 -12,45 -51,78 -98,83 -62,4 -121,-32 -144,-90 -5,-15 -12,-17 -26,-13 -40,12 -82,20 -121,34l0 9c4,14 9,28 11,42 0,12 10,22 22,22 2,0 4,0 6,-1 15,-3 29,-3 44,0 38,10 68,40 78,78 15,36 21,75 32,112 60,208 119,417 178,626 8,27 6,55 -6,79 -6,13 -12,24 -17,37 -5,9 -3,20 5,26 18,16 34,34 51,51 13,12 22,27 29,43 14,44 14,91 0,135 -5,9 -1,21 9,26 1,0 1,1 2,1 12,6 24,12 35,19 14,7 24,19 30,32 40,109 82,217 118,326 34,98 59,198 88,298 1,7 1,15 0,22 -18,78 -35,155 -49,233 -23,98 -34,198 -32,298 2,52 13,104 35,153 18,52 59,92 112,109l40 0c47,-15 84,-52 100,-99 10,-22 17,-46 21,-69 19,-100 21,-203 6,-303 -13,-109 -31,-217 -55,-323 -2,-7 -2,-15 0,-22 23,-100 52,-200 85,-298 32,-81 57,-165 93,-245 19,-59 60,-109 114,-139 7,-4 12,-12 10,-20 -1,-23 -5,-47 -11,-70 -16,-62 3,-129 50,-174 24,-17 31,-48 18,-74 -13,-32 -13,-68 0,-100 21,-64 41,-128 62,-192zm-432 1956c0,22 -3,44 -10,64 0,9 -6,20 -16,21 -10,1 -14,-9 -19,-16 -20,-30 -31,-63 -34,-99 -9,-95 -4,-191 17,-284 0,-18 7,-36 11,-54l5 0c6,33 13,70 19,100 18,88 27,178 27,268z"/>
 </g>
</svg>
