<?xml version="1.0" encoding="UTF-8"?>
<!DOCTYPE svg PUBLIC "-//W3C//DTD SVG 1.1//EN" "http://www.w3.org/Graphics/SVG/1.1/DTD/svg11.dtd">
<!-- Creator: CorelDRAW X7 -->
<svg xmlns="http://www.w3.org/2000/svg" xml:space="preserve" width="158px" height="111px" version="1.1" style="shape-rendering:geometricPrecision; text-rendering:geometricPrecision; image-rendering:optimizeQuality; fill-rule:evenodd; clip-rule:evenodd"
viewBox="0 0 47704 33494"
 xmlns:xlink="http://www.w3.org/1999/xlink">
 <defs>
  <style type="text/css">
   <![CDATA[
    .fil0 {fill:#333462}
   ]]>
  </style>
 </defs>
 <g id="Layer_x0020_1">
  <metadata id="CorelCorpID_0Corel-Layer"/>
  <path class="fil0" d="M41527 27668c351,350 692,907 722,907 62,392 1547,-3279 1784,-3588 -515,309 -2125,1433 -3434,2062 326,167 637,364 928,588l0 31z"/>
  <path class="fil0" d="M14107 29266c7201,3533 15605,3666 22914,362 200,-295 379,-601 536,-919 0,0 -1207,537 -3094,1094 -2462,739 -5018,1120 -7590,1134 -5954,155 -11787,-1697 -16561,-5259 -1533,-1206 -2420,-3053 -2403,-5002 -38,-1383 382,-2739 1197,-3857 -1925,-2703 -1454,-6430 1082,-8569 4456,-3310 9819,-5173 15366,-5342 650,0 5217,-454 12075,2197 -245,-506 -550,-980 -907,-1413 -3408,-1427 -7061,-2173 -10756,-2196l-526 0c-6956,205 -13581,3017 -18562,7878 -2093,2157 -3833,4632 -5156,7332 2569,5474 6937,9903 12375,12550l10 10z"/>
  <path class="fil0" d="M43559 8167c-165,-619 -433,-1031 -1444,-3320 -169,339 -377,657 -619,948 -272,265 -577,494 -907,681 2866,1372 2722,1774 2970,1691z"/>
  <path class="fil0" d="M16252 31844c2752,978 5607,1525 8470,1650l2528 0c4132,-180 8220,-1241 11978,-3166 0,0 -640,-1371 484,-1505 1279,-187 877,1928 898,1948 672,254 1361,462 2062,620 0,0 4793,-9765 5032,-10464l0 -97c-24,-85 -107,-215 -392,-113 -102,0 -9229,8476 -19820,8631 -4678,196 -9319,-911 -13405,-3196 -3167,-1588 -4569,-3146 -4476,-5373 14,-1495 623,-2924 1691,-3970 -1116,-986 -1714,-2432 -1619,-3919 186,-3238 2774,-4373 5455,-5764 4968,-2445 10590,-3226 16036,-2228 7735,1032 15469,7569 15540,7590 350,93 350,-227 350,-227 0,0 -4361,-10137 -4546,-10199 -766,240 -1511,540 -2228,898 113,175 649,1866 -681,1908 -1330,40 -783,-1609 -680,-1774 -3967,-1974 -8327,-3031 -12757,-3094l-216 0c-4073,67 -8090,946 -11818,2588 -6264,2863 -11284,7891 -14138,14159 0,0 3712,10312 16283,15056l-31 41zm-7126 -25482c4487,-3398 9898,-5358 15520,-5619 4604,-247 9195,691 13334,2722 0,0 -402,2145 1691,2165 988,-78 1725,-943 1646,-1931 -10,-125 -33,-248 -68,-368 0,0 608,-351 804,-299 196,52 3259,7218 3300,7218 72,340 -257,207 -257,207 0,0 -8157,-6404 -17192,-6662 -6140,-236 -12184,1577 -17180,5156 -1164,1060 -1846,2550 -1887,4125 -144,1835 1310,3630 1321,3805 -882,1114 -1368,2489 -1382,3908 60,1501 699,2921 1784,3960 1940,1513 4104,2713 6414,3558 4001,1907 10312,1784 10312,1784 3769,-139 7468,-1052 10869,-2681 2559,-1188 4980,-2655 7219,-4373 340,-165 299,124 299,124 0,0 -3413,7219 -3454,7219 -266,82 -556,20 -764,-166 234,-997 -385,-1997 -1383,-2231 -114,-26 -232,-42 -350,-47 -1650,145 -1598,2062 -1598,2062 -3374,1628 -7035,2574 -10777,2784 -267,0 -773,0 -1474,0 -4797,-14 -9510,-1263 -13684,-3630 -5027,-2809 -9007,-7172 -11344,-12436 1831,-4082 4670,-7631 8250,-10312l31 -42z"/>
  <path class="fil0" d="M39341 23440c332,-163 725,-135 1032,71 91,57 178,122 258,197 544,-302 1065,-648 1556,-1031l0 0c-550,274 -1219,49 -1493,-502 -36,-73 -65,-151 -84,-230 0,-63 -361,-3033 -393,-3094 8,-308 117,-606 310,-846 -333,-246 -546,-620 -587,-1031 -50,-416 90,-833 380,-1135 -320,-184 -560,-481 -669,-835 0,-82 -630,-4589 -620,-4599 155,-815 1032,-464 1032,-464l93 -175c-638,-415 -1300,-794 -1981,-1134 -378,439 -974,623 -1535,474 -919,-289 -795,-1475 -795,-1475 -443,-204 -897,-383 -1361,-537l-186 444c0,0 1031,454 866,1392 0,114 -968,5951 -959,5919 -34,468 -291,890 -690,1135 246,347 360,772 319,1196 -83,390 -321,728 -660,939 183,312 271,670 258,1031 0,51 -897,5940 -897,5796 -188,956 -777,1786 -1618,2279l0 309c533,-77 1063,-181 1587,-309 62,0 -72,-970 733,-1167 510,-81 1016,173 1258,630 0,0 391,-114 525,-175 134,-62 0,-268 0,-268 -632,-145 -1067,-725 -1031,-1372 0,-62 630,-4125 681,-4208 1105,-719 2259,-1361 3454,-1918 62,0 547,3486 516,3322 153,1073 -233,2152 -1032,2887 0,0 0,412 0,505 453,-185 890,-401 1310,-650 -142,-478 53,-992 475,-1258zm-1578 -6125c-930,700 -1946,1278 -3021,1722l0 0c0,-1031 1495,-9549 1588,-9621 106,-68 242,-68 350,0 516,2613 884,5254 1104,7909l-21 -10z"/>
  <path class="fil0" d="M20769 17974c62,0 103,-83 0,-144 -401,-320 -589,-839 -485,-1341 42,-440 187,-864 423,-1237 0,-62 0,-93 0,-145 -134,-113 -258,-237 -371,-371 -101,-126 -159,-282 -165,-444 -72,-1371 0,-2742 0,-4124 -36,-361 -141,-711 -310,-1032 -429,-929 -1313,-1566 -2330,-1680l-196 0 -516 0 -175 0c-219,25 -431,88 -629,185 -446,171 -854,431 -1196,763 -663,696 -1098,1577 -1248,2527 -5,44 -5,90 0,134l0 3661c-11,325 -143,634 -372,866l0 51c308,247 448,647 361,1032 -41,322 -135,636 -278,928 -47,71 -47,165 0,237 0,0 0,0 0,51 191,262 276,586 237,909 0,978 0,1968 0,2948 -21,765 184,1517 588,2166 401,709 976,1305 1670,1732 1238,713 2814,354 3620,-824 410,-588 652,-1276 702,-1991 46,-687 46,-1376 0,-2063 -47,-591 -26,-1186 61,-1773 43,-397 273,-749 619,-949zm-3083 -2578c216,234 362,523 422,836 57,485 -52,975 -309,1392 -50,82 -50,185 0,268 198,409 304,856 309,1310 0,577 0,1165 0,1742 0,578 0,1433 0,2145 1,424 -51,847 -154,1258 -38,139 -90,274 -155,403 -155,418 -598,652 -1031,546 -372,-41 -727,-176 -1031,-392 -273,-221 -460,-532 -527,-876 -85,-373 -130,-753 -133,-1135 0,-814 0,-1619 51,-2423 0,-372 0,-742 0,-1104 0,-175 0,-350 0,-536 -13,-330 97,-653 310,-907 165,-217 154,-165 0,-362 -394,-622 -426,-1409 -83,-2061 175,-145 93,-269 0,-413 -117,-204 -181,-435 -185,-671 -26,-446 -26,-893 0,-1340 0,-474 0,-949 0,-1413 -64,-806 -29,-1616 102,-2413 48,-222 131,-434 248,-629 85,-156 210,-288 361,-381 185,-146 394,-258 619,-330 258,-52 525,-52 784,0 253,41 475,192 608,412 174,259 267,565 268,877l0 2495 0 2516c1,97 -20,192 -62,279 -102,251 -248,481 -433,680 -72,62 -62,124 0,186l21 41z"/>
  <path class="fil0" d="M30617 11570c320,-1031 650,-1990 969,-2991 104,-319 155,-659 289,-969 116,-413 526,-672 949,-598 40,49 112,55 160,16 48,-40 55,-112 15,-160l0 0c21,-95 50,-188 83,-278l0 -73c-339,-116 -683,-212 -1032,-288 -144,0 -144,0 -175,113 -62,404 -380,721 -783,784 -388,101 -798,-46 -1032,-372 -126,-199 -181,-435 -155,-670 0,-196 0,-196 -185,-227 -495,-65 -996,-89 -1495,-72 -83,0 -114,0 -114,103 0,103 0,309 0,474 0,166 0,124 124,134 235,30 465,96 680,197 552,251 859,848 743,1443 -93,633 -248,1255 -465,1856 -123,413 -205,836 -329,1248 -70,266 -201,514 -381,722 -92,93 -196,173 -310,237 -72,0 -83,62 -62,124 21,62 104,309 165,454 190,657 -118,1357 -732,1660 -52,0 -93,51 -61,124 176,476 194,997 51,1485 -103,448 -238,890 -403,1319 -113,338 -202,682 -268,1032 -61,-227 -113,-412 -175,-598 -208,-612 -380,-1235 -516,-1866 -99,-388 -117,-792 -51,-1187 0,-103 103,-206 72,-299 -31,-93 -155,-123 -237,-196 -482,-407 -641,-1080 -392,-1660 73,-206 82,-216 -93,-340 -246,-175 -416,-436 -474,-732 -196,-898 -496,-1774 -712,-2682 -108,-427 -150,-869 -123,-1309 -6,-632 492,-1154 1123,-1176 218,0 228,0 228,-247l0 -72c0,-207 0,-207 -187,-269l-474 0 -928 155c-175,0 -185,0 -216,207 -31,206 0,268 -73,402 -89,339 -382,587 -732,618 -472,53 -919,-224 -1082,-670 -15,-78 -90,-130 -168,-116 -14,2 -27,7 -39,13 -299,93 -608,155 -907,258l0 72c0,103 62,206 83,309 -4,91 68,168 159,170 16,1 31,-1 46,-5 109,-26 222,-26 331,0 288,78 515,301 598,588 103,278 155,567 237,856 454,1567 897,3094 1351,4702 56,199 37,412 -52,598 -51,93 -92,186 -134,279 -43,58 -43,137 0,196l382 381c102,87 177,202 216,330 118,334 118,698 0,1031 0,104 0,166 93,207l268 144c101,56 181,142 227,248 299,814 609,1629 887,2454 279,825 443,1506 659,2258 11,52 11,104 0,155 -133,587 -257,1175 -360,1774 -175,733 -258,1484 -248,2237 28,417 141,824 330,1197 139,390 452,696 846,825l310 0c354,-114 633,-390 752,-743 70,-166 126,-339 165,-515 124,-759 124,-1532 0,-2289 -97,-818 -234,-1631 -412,-2434 -16,-55 -16,-111 0,-166 175,-760 392,-1510 649,-2247 237,-620 423,-1248 692,-1857 154,-437 461,-804 866,-1031 61,0 72,-83 72,-144 -8,-175 -35,-348 -83,-516 -120,-477 26,-981 382,-1320 174,-128 231,-364 134,-557 -95,-241 -95,-510 0,-753 165,-484 309,-969 464,-1454zm-3248 14654c-2,165 -30,329 -83,485 0,62 0,144 -124,164 -124,22 -102,-71 -144,-123 -145,-223 -234,-478 -257,-743 -60,-717 -15,-1440 133,-2145 0,-144 51,-278 83,-411l0 0c0,257 113,504 154,762 144,678 213,1369 207,2062l31 -51z"/>
 </g>
</svg>
